<?xml version="1.0" encoding="UTF-8" standalone="no"?>
<!-- Created with Inkscape (http://www.inkscape.org/) -->

<svg
   xmlns:dc="http://purl.org/dc/elements/1.1/"
   xmlns:cc="http://creativecommons.org/ns#"
   xmlns:rdf="http://www.w3.org/1999/02/22-rdf-syntax-ns#"
   xmlns:svg="http://www.w3.org/2000/svg"
   xmlns="http://www.w3.org/2000/svg"
   xmlns:sodipodi="http://sodipodi.sourceforge.net/DTD/sodipodi-0.dtd"
   xmlns:inkscape="http://www.inkscape.org/namespaces/inkscape"
   viewBox="0 0 20 20"
   version="1.1"
   id="svg8"
   inkscape:version="0.92.2 5c3e80d, 2017-08-06"
   sodipodi:docname="floorplan-marker.svg"
   inkscape:export-filename="/Users/artur/Documents/room.png"
   inkscape:export-xdpi="96"
   inkscape:export-ydpi="96">
  <defs
     id="defs2" />
  <sodipodi:namedview
     id="base"
     pagecolor="#ffffff"
     bordercolor="#666666"
     borderopacity="1.0"
     inkscape:pageopacity="0.0"
     inkscape:pageshadow="2"
     inkscape:zoom="0.5"
     inkscape:cx="-173.55535"
     inkscape:cy="436.08504"
     inkscape:document-units="mm"
     inkscape:current-layer="layer1"
     showgrid="false"
     inkscape:window-width="1680"
     inkscape:window-height="925"
     inkscape:window-x="0"
     inkscape:window-y="1"
     inkscape:window-maximized="1" ></sodipodi:namedview>
  <metadata
     id="metadata5">
    <rdf:RDF>
      <cc:Work
         rdf:about="">
        <dc:format>image/svg+xml</dc:format>
        <dc:type
           rdf:resource="http://purl.org/dc/dcmitype/StillImage" />
        <dc:title></dc:title>
      </cc:Work>
    </rdf:RDF>
  </metadata>
  <g
     inkscape:label="Layer 1"
     inkscape:groupmode="layer"
     id="layer1">
    <path
       style="fill:#d35f5f;stroke:#000000;stroke-width:0.11859821"
       d="M 9.9997791,0.05929911 A 9.9407005,9.9407005 0 0 0 0.05929911,10.000299 9.9407005,9.9407005 0 0 0 9.9997791,19.940779 9.9407005,9.9407005 0 0 0 19.940769,10.000299 9.9407005,9.9407005 0 0 0 9.9997791,0.05929911 Z m 0,4.97075999 a 4.9703503,4.9703503 0 0 1 4.9707499,4.9702399 4.9703503,4.9703503 0 0 1 -4.9707499,4.97024 4.9703503,4.9703503 0 0 1 -4.97024,-4.97024 4.9703503,4.9703503 0 0 1 4.97024,-4.9702399 z"
       id="circle731"
       inkscape:connector-curvature="0" />
  </g>
</svg>
