<?xml version="1.0" encoding="UTF-8" standalone="no"?>
<!-- Created with Inkscape (http://www.inkscape.org/) -->

<svg
   xmlns:dc="http://purl.org/dc/elements/1.1/"
   xmlns:cc="http://creativecommons.org/ns#"
   xmlns:rdf="http://www.w3.org/1999/02/22-rdf-syntax-ns#"
   xmlns:svg="http://www.w3.org/2000/svg"
   xmlns="http://www.w3.org/2000/svg"
   xmlns:sodipodi="http://sodipodi.sourceforge.net/DTD/sodipodi-0.dtd"
   xmlns:inkscape="http://www.inkscape.org/namespaces/inkscape"
   viewBox="0 0 20 20"
   version="1.1"
   id="svg8"
   inkscape:version="0.92.2 5c3e80d, 2017-08-06"
   sodipodi:docname="floorplan-marker.svg"
   inkscape:export-filename="/Users/artur/Documents/room.png"
   inkscape:export-xdpi="96"
   inkscape:export-ydpi="96">
  <defs
     id="defs2" />
  <sodipodi:namedview
     id="base"
     pagecolor="#ffffff"
     bordercolor="#666666"
     borderopacity="1.0"
     inkscape:pageopacity="0.0"
     inkscape:pageshadow="2"
     inkscape:zoom="1.4142136"
     inkscape:cx="88.414347"
     inkscape:cy="1058.339"
     inkscape:document-units="mm"
     inkscape:current-layer="layer1"
     showgrid="false"
     inkscape:window-width="1680"
     inkscape:window-height="925"
     inkscape:window-x="0"
     inkscape:window-y="1"
     inkscape:window-maximized="1" />
  <metadata
     id="metadata5">
    <rdf:RDF>
      <cc:Work
         rdf:about="">
        <dc:format>image/svg+xml</dc:format>
        <dc:type
           rdf:resource="http://purl.org/dc/dcmitype/StillImage" />
        <dc:title />
      </cc:Work>
    </rdf:RDF>
  </metadata>
  <g
     inkscape:label="Layer 1"
     inkscape:groupmode="layer"
     id="layer1">
    <g
       id="g854"
       transform="translate(-29.614782,-11.466246)">
      <path
         id="path835"
         transform="scale(0.26458333)"
         d="M 149.72461,43.71875 A 37.414611,37.414611 0 0 0 112.31055,81.132812 37.414611,37.414611 0 0 0 149.72461,118.54688 37.414611,37.414611 0 0 0 187.14062,81.132812 37.414611,37.414611 0 0 0 149.72461,43.71875 Z m 0,3.740234 a 33.67315,33.67315 0 0 1 33.67383,33.673828 33.67315,33.67315 0 0 1 -33.67383,33.673828 33.67315,33.67315 0 0 1 -33.67188,-33.673828 33.67315,33.67315 0 0 1 33.67188,-33.673828 z"
         style="fill:#ff0000;stroke:#000000;stroke-width:0.76132733"
         inkscape:connector-curvature="0" />
      <path
         inkscape:connector-curvature="0"
         style="fill:#ff0000;stroke:#000000;stroke-width:0.16114582"
         d="m 39.614687,13.547168 a 7.9193373,7.9193373 0 0 0 -7.919221,7.919221 7.9193373,7.9193373 0 0 0 7.919221,7.919223 7.9193373,7.9193373 0 0 0 7.919634,-7.919223 7.9193373,7.9193373 0 0 0 -7.919634,-7.919221 z m 0,0.791674 a 7.1274036,7.1274036 0 0 1 7.127547,7.127547 7.1274036,7.1274036 0 0 1 -7.127547,7.127547 7.1274036,7.1274036 0 0 1 -7.127135,-7.127547 7.1274036,7.1274036 0 0 1 7.127135,-7.127547 z"
         id="path844" />
      <path
         id="path846"
         d="m 39.614739,15.526974 a 5.9395024,5.9395024 0 0 0 -5.939416,5.939415 5.9395024,5.9395024 0 0 0 5.939416,5.939417 5.9395024,5.9395024 0 0 0 5.939725,-5.939417 5.9395024,5.9395024 0 0 0 -5.939725,-5.939415 z m 0,0.593755 a 5.3455522,5.3455522 0 0 1 5.34566,5.34566 5.3455522,5.3455522 0 0 1 -5.34566,5.345659 5.3455522,5.3455522 0 0 1 -5.34535,-5.345659 5.3455522,5.3455522 0 0 1 5.34535,-5.34566 z"
         style="fill:#ff0000;stroke:#000000;stroke-width:0.12085935"
         inkscape:connector-curvature="0" />
      <path
         inkscape:connector-curvature="0"
         style="fill:#ff0000;stroke:#000000;stroke-width:0.0805729"
         d="m 39.61479,17.506779 a 3.9596682,3.9596682 0 0 0 -3.95961,3.95961 3.9596682,3.9596682 0 0 0 3.95961,3.959611 3.9596682,3.9596682 0 0 0 3.959817,-3.959611 3.9596682,3.9596682 0 0 0 -3.959817,-3.95961 z m 0,0.395837 a 3.5637014,3.5637014 0 0 1 3.563774,3.563773 3.5637014,3.5637014 0 0 1 -3.563774,3.563773 3.5637014,3.5637014 0 0 1 -3.563566,-3.563773 3.5637014,3.5637014 0 0 1 3.563566,-3.563773 z"
         id="path848" />
    </g>
  </g>
</svg>
